<svg aria-hidden="true" style="position: absolute; width: 0; height: 0; overflow: hidden;" version="1.1" xmlns="http://www.w3.org/2000/svg" xmlns:xlink="http://www.w3.org/1999/xlink">
<defs>
<symbol id="icon-antenna" viewBox="0 0 32 32">
<path fill="#212121" style="fill: var(--color1, #212121)" d="M30.773 22.098l-8.443-8.505 0.937-4.616c0.225 0.090 0.485 0.144 0.758 0.146h0.007c0.008 0 0.017 0 0.026 0 1.192 0 2.159-0.967 2.159-2.159s-0.967-2.159-2.159-2.159c-1.192 0-2.159 0.967-2.159 2.159 0 0.259 0.046 0.508 0.13 0.739l-0.005-0.015-4.96 0.606-8.090-8.133c-0.096-0.098-0.229-0.159-0.376-0.16h-0c-0.14 0.001-0.274 0.057-0.373 0.155l-1.512 1.504c-0.096 0.097-0.156 0.23-0.156 0.377s0.060 0.281 0.156 0.377v0l0.814 0.825c-1.143 2.062-1.816 4.522-1.816 7.139 0 4.106 1.656 7.824 4.336 10.525l-0.001-0.001c0.043 0.041 0.092 0.074 0.146 0.097-0.032 0.164-0.051 0.353-0.052 0.546v6.188h-6.4c-1.472 0.001-2.666 1.194-2.667 2.666v1.067c0 0.295 0.239 0.534 0.534 0.534h24.533c0.294 0 0.533-0.239 0.533-0.534v-1.067c-0.002-1.472-1.195-2.665-2.666-2.666h-6.4v-2.742c1.003 0.21 2.024 0.317 3.049 0.32 2.58-0.003 5.005-0.663 7.117-1.822l-0.077 0.039 0.818 0.823c0.099 0.101 0.235 0.159 0.376 0.16 0.14-0.001 0.274-0.057 0.373-0.155l1.512-1.504c0.096-0.097 0.156-0.23 0.156-0.377s-0.060-0.281-0.156-0.377v0zM23.28 6.233c0.193-0.192 0.459-0.31 0.752-0.31 0.589 0 1.067 0.478 1.067 1.066s-0.477 1.066-1.067 1.066c-0 0-0 0-0 0h-0.004c-0.587-0.003-1.061-0.479-1.061-1.066 0-0.295 0.12-0.563 0.314-0.756l0-0h-0.002zM22.024 9.737l-0.598 2.946-1.175-1.183 1.774-1.763zM21.419 8.835l-1.92 1.909-1.486-1.494 3.406-0.416zM24.004 28.8c0.884 0 1.6 0.716 1.6 1.6v0 0.534h-23.466v-0.534c0-0.884 0.716-1.6 1.6-1.6v0h20.266zM16.538 26.666v1.067h-5.334v-1.067h5.334zM11.204 25.6v-4.053c0-1.294 1.196-2.346 2.667-2.346s2.667 1.053 2.667 2.346v4.053h-5.334zM17.604 23.904v-2.358c0-1.882-1.675-3.413-3.733-3.413-0.017-0-0.038-0-0.058-0-1.353 0-2.54 0.707-3.213 1.771l-0.009 0.016c-2.36-2.482-3.812-5.846-3.812-9.55 0-2.314 0.567-4.496 1.569-6.414l-0.036 0.077 18.602 18.709c-1.823 0.947-3.979 1.502-6.266 1.502-1.079 0-2.128-0.124-3.136-0.357l0.093 0.018zM28.893 23.22l-21.057-21.181 0.754-0.752 7.935 7.98c0.004 0 0.006 0.007 0.010 0.010l13.114 13.191-0.757 0.752z"></path>
<path fill="#2196f3" style="fill: var(--color2, #2196f3)" d="M13.876 20.266h-0.005c-0.001 0-0.002 0-0.002 0-0.884 0-1.6 0.716-1.6 1.6s0.715 1.599 1.597 1.6h0.005c0.001 0 0.001 0 0.002 0 0.884 0 1.6-0.716 1.6-1.6s-0.715-1.599-1.598-1.6h-0zM14.249 22.245c-0.096 0.096-0.229 0.155-0.376 0.155-0.295 0-0.534-0.239-0.534-0.534s0.238-0.533 0.532-0.533h0c0.293 0.001 0.531 0.239 0.531 0.533 0 0.148-0.060 0.282-0.157 0.378l-0 0h0.005z"></path>
</symbol>
<symbol id="icon-astronaut" viewBox="0 0 32 32">
<path fill="#2196f3" style="fill: var(--color2, #2196f3)" d="M31.974 4.524c-0.064-0.191-0.227-0.332-0.427-0.362l-0.003-0-1.911-0.278-0.855-1.731c-0.179-0.365-0.777-0.365-0.956 0l-0.855 1.731-1.911 0.278c-0.26 0.039-0.457 0.26-0.457 0.528 0 0.15 0.062 0.285 0.161 0.382l1.383 1.348-0.326 1.903c-0.034 0.2 0.048 0.402 0.212 0.522 0.166 0.12 0.383 0.135 0.562 0.040l1.709-0.899 1.709 0.899c0.072 0.038 0.157 0.061 0.247 0.061 0.295 0 0.534-0.239 0.534-0.534 0-0.031-0.003-0.062-0.008-0.092l0 0.003-0.326-1.903 1.383-1.348c0.099-0.097 0.161-0.233 0.161-0.382 0-0.059-0.009-0.115-0.027-0.168l0.001 0.004zM29.511 5.852c-0.126 0.122-0.183 0.299-0.153 0.472l0.191 1.114-1-0.526c-0.072-0.039-0.158-0.062-0.249-0.062s-0.177 0.023-0.252 0.063l0.003-0.001-1 0.526 0.191-1.114c0.005-0.027 0.008-0.059 0.008-0.091 0-0.149-0.061-0.285-0.16-0.381l-0-0-0.811-0.79 1.119-0.162c0.174-0.025 0.324-0.134 0.402-0.292l0.5-1.013 0.5 1.013c0.078 0.158 0.228 0.267 0.402 0.292l1.119 0.162-0.809 0.79zM26.134 20.522h-1.067v1.067h1.067v-1.067zM26.134 22.656h-1.067v1.066h1.067v-1.066zM27.2 21.589h-1.067v1.067h1.067v-1.067zM25.067 21.589h-1.067v1.067h1.067v-1.067zM22.4 26.389h-1.067v1.067h1.067v-1.067zM22.4 28.523h-1.067v1.067h1.067v-1.067zM23.467 27.456h-1.067v1.067h1.067v-1.067zM21.334 27.456h-1.067v1.067h1.067v-1.067zM16 24.256h-1.066v1.067h1.066v-1.067zM16 26.389h-1.066v1.067h1.066v-1.067zM17.067 25.322h-1.067v1.067h1.067v-1.067zM14.934 25.322h-1.067v1.067h1.067v-1.067zM5.867 6.122h-1.066v1.066h1.066v-1.066zM5.867 8.256h-1.066v1.066h1.066v-1.066zM6.933 7.189h-1.067v1.067h1.066v-1.067zM4.8 7.189h-1.067v1.067h1.067v-1.067z"></path>
<path fill="#212121" style="fill: var(--color1, #212121)" d="M24.715 14.16c-0.28-0.376-0.698-0.636-1.179-0.703l-0.009-0.001c-0.076-0.012-0.164-0.018-0.254-0.018-0.411 0-0.789 0.139-1.090 0.373l0.004-0.003-1.253 0.96-1.898 1.417-1.358-0.541c2.421-1.086 4.113-3.508 4.113-6.32 0-3.823-3.122-6.933-6.961-6.933s-6.961 3.11-6.961 6.933c0 1.386 0.415 2.674 1.12 3.759l-2.768-0.024c-0.009 0-0.016 0.005-0.023 0.005-0.057 0.003-0.11 0.014-0.159 0.033l0.004-0.001c-0.013 0.005-0.026 0.007-0.038 0.013-0.006 0.003-0.013 0.003-0.019 0.006l-3.233 1.596c-0 0-0.001 0-0.001 0.001l-1.893 0.91c-0.024 0.011-0.045 0.023-0.065 0.036l0.001-0.001c-0.482 0.324-0.795 0.867-0.795 1.483 0 0.297 0.073 0.577 0.201 0.823l-0.005-0.010c0.22 0.424 0.592 0.742 1.043 0.885l0.013 0.003c0.161 0.053 0.345 0.083 0.537 0.083 0.308 0 0.598-0.078 0.851-0.216l-0.009 0.005 1.388-0.738 2.264-1.169 1.357-0.008-5.442 5.415c0 0.001-0.001 0.001-0.001 0.001l-1.339 1.333c-0.303 0.299-0.491 0.714-0.491 1.173 0 0.002 0 0.003 0 0.005v-0c0.002 0.919 0.748 1.664 1.667 1.664 0.001 0 0.002 0 0.002 0h-0c0.428 0 0.854-0.162 1.18-0.485l1.314-1.309 1.741-1.3 0.901 0.897-3.102 3.088c-0.303 0.299-0.491 0.714-0.491 1.173 0 0.001 0 0.003 0 0.004v-0c0 0.445 0.174 0.864 0.49 1.179 0.302 0.3 0.717 0.485 1.176 0.485 0.001 0 0.002 0 0.003 0h-0c0.427 0 0.855-0.162 1.18-0.485l4.488-4.472c0.007-0.006 0.016-0.009 0.022-0.016l5.166-5.658 3.471 0.494c0.025 0.004 0.050 0.006 0.075 0.006 0.064 0 0.127-0.016 0.187-0.038 0.017-0.006 0.032-0.015 0.049-0.023 0.019-0.010 0.039-0.015 0.058-0.027l3.213-2.133c0.012-0.008 0.018-0.021 0.029-0.030 0.013-0.010 0.029-0.014 0.041-0.026l1.271-1.191c0.348-0.326 0.564-0.787 0.564-1.3 0-0.4-0.132-0.769-0.355-1.066l0.003 0.005zM2.13 17.77c-0.098 0.054-0.215 0.086-0.34 0.086-0.078 0-0.153-0.013-0.224-0.036l0.005 0.001c-0.294-0.093-0.504-0.364-0.504-0.683 0-0.235 0.114-0.444 0.289-0.575l0.002-0.001 1.314-0.632 0.316 0.924 0.133 0.389-0.992 0.527zM5.628 15.943l-1.548 0.8-0.255-0.746-0.184-0.537 2.027-1.001-0.040 1.484zM20.727 9.322c0 0.918-0.219 1.785-0.599 2.56l-4.181-1.899c-0.044-0.575-0.342-1.072-0.782-1.384l-0.006-0.004 1.464-4.861c2.377 0.757 4.104 2.975 4.104 5.588zM8.938 9.322c0-3.235 2.644-5.867 5.894-5.867 0.253 0 0.5 0.022 0.745 0.053l-1.432 4.753c-0.019 0-0.037-0.006-0.057-0.006-0 0-0.001 0-0.001 0-1.032 0-1.869 0.835-1.872 1.867v0c0.003 1.031 0.84 1.867 1.872 1.867 0 0 0 0 0.001 0h-0c0.695 0 1.295-0.383 1.618-0.944l3.863 1.755c-1.075 1.447-2.795 2.39-4.737 2.39-3.25 0-5.894-2.632-5.894-5.866zM14.895 10.122c0 0.441-0.362 0.8-0.806 0.8-0 0-0.001 0-0.001 0-0.443 0-0.802-0.358-0.804-0.8v-0c0-0.441 0.361-0.8 0.806-0.8s0.806 0.359 0.806 0.8zM2.465 25.146c-0.11 0.109-0.261 0.176-0.428 0.176s-0.317-0.067-0.427-0.175l0 0c-0.109-0.108-0.176-0.257-0.176-0.422s0.067-0.314 0.176-0.422l0-0 0.962-0.959 0.852 0.848-0.959 0.954zM5.678 28.88c-0.11 0.109-0.261 0.176-0.428 0.176s-0.317-0.067-0.427-0.175l0 0c-0.109-0.108-0.176-0.257-0.176-0.422s0.067-0.314 0.176-0.422l0-0 0.963-0.959 0.852 0.848-0.96 0.955zM9.16 25.411l-0.001 0.001-1.765 1.76-0.852-0.848 1.765-1.757c0.040-0.040 0.065-0.088 0.090-0.136 0.007-0.014 0.020-0.026 0.026-0.040 0.016-0.041 0.019-0.085 0.026-0.128 0.003-0.025 0.014-0.048 0.014-0.073 0-0.035-0.013-0.070-0.020-0.105-0.006-0.032-0.006-0.064-0.019-0.096-0.025-0.053-0.055-0.098-0.092-0.138l0 0c-0.010-0.012-0.014-0.026-0.025-0.038h-0.001s0-0.001-0.001-0.002l-1.607-1.6c-0.017-0.017-0.039-0.024-0.058-0.038-0.025-0.021-0.054-0.040-0.084-0.056l-0.003-0.001c-0.026-0.012-0.058-0.023-0.090-0.031l-0.003-0.001c-0.030-0.009-0.065-0.017-0.101-0.020l-0.002-0c-0.007-0-0.015-0-0.023-0-0.026 0-0.051 0.002-0.075 0.005l0.003-0c-0.036 0.005-0.069 0.009-0.104 0.021s-0.064 0.027-0.094 0.045c-0.020 0.011-0.043 0.015-0.061 0.029l-1.774 1.324-0.901-0.897 2.399-2.386 4.36 4.289-0.928 0.919zM15.979 18.394c-0.016-0.002-0.030 0.004-0.046 0.003-0.008-0-0.017-0.001-0.027-0.001-0.031 0-0.062 0.003-0.092 0.008l0.003-0c-0.070 0.011-0.132 0.035-0.187 0.070l0.002-0.001c-0.030 0.018-0.057 0.037-0.083 0.061-0.013 0.011-0.028 0.016-0.040 0.029l-4.698 5.146-4.328-4.256 2.833-2.818c0.096-0.097 0.156-0.23 0.156-0.377 0-0.295-0.239-0.534-0.534-0.534-0.001 0-0.001 0-0.002 0h0l-2.219 0.013 0.028-1.607 3.104 0.027c1.264 1.297 3.027 2.101 4.978 2.101 0.001 0 0.002 0 0.003 0h-0c0.438 0 0.864-0.046 1.28-0.122 0.040 0.032 0.080 0.064 0.129 0.085l2.41 0.96 0.152 0.758 0.178 0.886-3.003-0.427zM20.020 18.572l-0.313-1.558 1.446-1.080 0.946 1.257-2.080 1.381zM23.773 15.741l-0.837 0.785-0.931-1.236 0.831-0.637c0.155-0.119 0.351-0.168 0.543-0.143 0.193 0.027 0.364 0.128 0.48 0.284 0.088 0.117 0.141 0.265 0.141 0.426 0 0.206-0.087 0.391-0.226 0.521l-0 0z"></path>
<path fill="#212121" style="fill: var(--color1, #212121)" d="M13.602 18.544l-2.143-2.134c-0.096-0.096-0.229-0.155-0.376-0.155s-0.28 0.059-0.376 0.155l-2.143 2.133c-0.097 0.097-0.156 0.23-0.156 0.378s0.060 0.281 0.156 0.378l-0-0 2.142 2.134c0.096 0.096 0.229 0.156 0.376 0.156s0.28-0.059 0.376-0.156v0l2.143-2.134c0.097-0.097 0.157-0.23 0.157-0.378s-0.060-0.281-0.157-0.378l-0-0zM11.084 20.303l-1.387-1.381 1.386-1.381 1.387 1.381-1.387 1.381zM17.164 5.071l-0.258 1.036c0.071 0.018 1.738 0.452 1.738 2.149h1.067c0-2.017-1.666-2.965-2.547-3.184zM19.711 9.322h-1.067v1.066h1.067v-1.066z"></path>
</symbol>
<symbol id="icon-brand" viewBox="0 0 43 32">
<path d="M3.264 26.464c0.167 0.189 0.256 0.427 0.252 0.67 0.001 0.015 0.001 0.033 0.001 0.051 0 0.15-0.034 0.292-0.094 0.419l0.003-0.006c-0.072 0.153-0.174 0.281-0.298 0.381l-0.002 0.002c-0.284 0.196-0.636 0.313-1.014 0.313-0.042 0-0.083-0.001-0.124-0.004l0.006 0h-1.992v-4.247h1.951c0.034-0.002 0.075-0.004 0.115-0.004 0.359 0 0.693 0.106 0.973 0.289l-0.007-0.004c0.126 0.097 0.226 0.22 0.292 0.357 0.066 0.139 0.095 0.288 0.087 0.439 0.011 0.233-0.069 0.464-0.226 0.649-0.152 0.169-0.361 0.285-0.594 0.332 0.264 0.044 0.503 0.173 0.672 0.364zM0.927 25.823h0.834c0.189 0.012 0.377-0.038 0.53-0.141 0.061-0.050 0.109-0.113 0.141-0.185l0.001-0.003c0.025-0.055 0.039-0.119 0.039-0.186 0-0.014-0.001-0.028-0.002-0.042l0 0.002c0.001-0.011 0.001-0.023 0.001-0.036 0-0.069-0.014-0.134-0.040-0.193l0.001 0.003c-0.033-0.075-0.080-0.138-0.139-0.189l-0.001-0.001c-0.135-0.091-0.301-0.146-0.48-0.146-0.023 0-0.047 0.001-0.070 0.003l0.003-0h-0.821v1.115zM2.373 27.451c0.065-0.052 0.117-0.117 0.152-0.192l0.001-0.003c0.028-0.060 0.044-0.129 0.044-0.203 0-0.012-0-0.024-0.001-0.035l0 0.002c0.001-0.009 0.001-0.020 0.001-0.031 0-0.076-0.017-0.148-0.048-0.212l0.001 0.003c-0.038-0.078-0.090-0.144-0.155-0.195l-0.001-0.001c-0.143-0.097-0.32-0.155-0.511-0.155-0.020 0-0.039 0.001-0.058 0.002l0.003-0h-0.875v1.168h0.886c0.199 0.010 0.397-0.041 0.56-0.148zM7.252 28.29l-1.085-1.66h-0.408v1.66h-0.934v-4.247h1.768c0.038-0.003 0.082-0.004 0.126-0.004 0.416 0 0.8 0.137 1.109 0.369l-0.005-0.003c0.247 0.231 0.397 0.534 0.421 0.856 0.002 0.027 0.003 0.058 0.003 0.089 0 0.31-0.11 0.593-0.294 0.814l0.002-0.002c-0.219 0.226-0.51 0.381-0.835 0.431l-0.008 0.001 1.156 1.697h-1.015zM5.759 26.050h0.764c0.53 0 0.796-0.214 0.796-0.643 0.001-0.010 0.001-0.022 0.001-0.034 0-0.080-0.016-0.157-0.046-0.227l0.001 0.004c-0.036-0.086-0.087-0.16-0.151-0.22l-0-0c-0.145-0.109-0.328-0.175-0.527-0.175-0.026 0-0.052 0.001-0.077 0.003l0.003-0h-0.772l0.009 1.293zM12.356 27.434h-1.861l-0.329 0.856h-0.979l1.708-4.2h1.059l1.702 4.2h-0.978l-0.322-0.855zM12.107 26.791l-0.68-1.793-0.68 1.793h1.36zM18.745 28.29h-0.926l-2.079-2.888v2.888h-0.925v-4.248h0.925l2.079 2.905v-2.905h0.926v4.248zM24.035 27.273c-0.192 0.32-0.484 0.582-0.839 0.749-0.36 0.17-0.783 0.269-1.228 0.269-0.027 0-0.053-0-0.079-0.001l0.004 0h-1.649v-4.247h1.65c0.023-0.001 0.050-0.001 0.078-0.001 0.444 0 0.866 0.096 1.245 0.269l-0.019-0.008c0.355 0.165 0.647 0.423 0.838 0.741 0.191 0.346 0.29 0.727 0.29 1.115s-0.099 0.768-0.29 1.114zM22.974 27.172c0.252-0.263 0.407-0.62 0.41-1.014v-0c0-0.372-0.145-0.731-0.41-1.013-0.287-0.227-0.655-0.365-1.055-0.365-0.037 0-0.074 0.001-0.111 0.004l0.005-0h-0.643v2.75h0.643c0.032 0.002 0.069 0.003 0.106 0.003 0.4 0 0.767-0.137 1.058-0.367l-0.004 0.003zM12.936 0.415s11.964 4.136 11.71 10.12v10.122s-11.955-4.137-11.706-10.122l-0.004-10.12zM35.305 18.288c2.26-1.424 4.873-2.305 7.602-2.565v-3.17c-3.144 1.11-5.811 3.122-7.602 5.734z"></path>
<path d="M33.948 19.243c1.849-3.41 5.055-6.041 8.959-7.353v-9.13s-17.038 5.891-16.678 14.414v14.411s0.759-0.263 1.954-0.757c0-0.46 0-0.925 0.055-1.393 0.352-3.956 2.406-7.622 5.711-10.193z"></path>
<path d="M32.327 24.596c0.089-1 0.289-1.988 0.596-2.951-2.058 2.219-3.304 4.974-3.563 7.875-0.025 0.274-0.039 0.547-0.045 0.83 1.421-0.622 2.497-1.151 3.551-1.716l-0.275 0.134c-0.302-1.373-0.391-2.778-0.265-4.173zM33.005 24.648c-0.033 0.351-0.052 0.758-0.052 1.17 0 0.924 0.096 1.825 0.278 2.694l-0.015-0.085c4.655-2.551 9.886-6.492 9.684-11.254v-0.415c-3.326 0.341-6.437 1.672-8.857 3.789-0.534 1.199-0.902 2.59-1.034 4.050l-0.004 0.051z"></path>
</symbol>
<symbol id="icon-clock" viewBox="0 0 32 32">
<path fill="#212121" style="fill: var(--color1, #212121)" d="M31.304 15.301c-0.001-8.452-6.855-15.303-15.308-15.301s-15.303 6.855-15.301 15.308c0.002 6.788 4.422 12.542 10.541 14.545l0.108 0.031c0.061 0.019 0.123 0.029 0.187 0.029 0.12 0 0.238-0.032 0.342-0.094 0.135-0.080 0.236-0.207 0.283-0.357l3.865-12.25c1.054-0.004 1.906-0.859 1.906-1.913 0-1.056-0.856-1.913-1.913-1.913-0.303 0-0.59 0.071-0.845 0.196l0.011-0.005-5.106-5.107c-0.114-0.11-0.271-0.179-0.443-0.179-0.352 0-0.638 0.286-0.638 0.638 0 0.172 0.068 0.328 0.179 0.443l-0-0 5.103 5.109c-0.121 0.241-0.191 0.525-0.191 0.826 0 0.602 0.283 1.137 0.723 1.48l0.004 0.003-3.682 11.673c-7.278-2.681-11.004-10.754-8.323-18.032s10.754-11.004 18.032-8.323c7.278 2.681 11.004 10.754 8.323 18.031-1.345 3.581-4.003 6.406-7.374 7.938l-0.088 0.036-0.398-1.874c-0.063-0.291-0.318-0.506-0.624-0.506-0.164 0-0.313 0.062-0.426 0.163l0.001-0.001-3.837 3.426c-0.132 0.117-0.214 0.287-0.214 0.477 0 0.283 0.185 0.524 0.441 0.606l0.005 0.001 4.899 1.563c0.058 0.020 0.126 0.031 0.196 0.031 0.352 0 0.637-0.285 0.637-0.637 0-0.047-0.005-0.093-0.015-0.138l0.001 0.004-0.391-1.839c5.528-2.374 9.328-7.771 9.328-14.056 0-0.011 0-0.023-0-0.034v0.002zM16 14.664c0.352 0 0.638 0.286 0.638 0.638s-0.285 0.638-0.638 0.638v0c-0.352 0-0.638-0.286-0.638-0.638s0.286-0.638 0.638-0.638v0zM18.1 29.527l2.184-1.948 0.603 2.84-2.787-0.892z"></path>
<path fill="#2196f3" style="fill: var(--color2, #2196f3)" d="M15.362 3.185v1.275c0 0.352 0.286 0.638 0.638 0.638s0.638-0.285 0.638-0.638v0-1.275c0-0.352-0.285-0.638-0.638-0.638s-0.638 0.285-0.638 0.638v0zM3.884 14.664c-0.352 0-0.638 0.286-0.638 0.638s0.285 0.638 0.638 0.638h1.275c0.352 0 0.638-0.286 0.638-0.638s-0.285-0.638-0.638-0.638h-1.275zM28.116 15.939c0.352 0 0.638-0.286 0.638-0.638s-0.285-0.638-0.638-0.638h-1.275c-0.352 0-0.638 0.286-0.638 0.638s0.285 0.638 0.638 0.638h1.275z"></path>
</symbol>
<symbol id="icon-company" viewBox="0 0 34 32">
<path d="M5.482 31.393c0.012 0 0.025 0.003 0.036 0.008s0.022 0.011 0.030 0.019l-0-0 0.169 0.162c-0.132 0.131-0.295 0.236-0.477 0.308-0.188 0.070-0.405 0.111-0.632 0.111-0.015 0-0.031-0-0.046-0.001l0.002 0c-0.218 0.004-0.434-0.031-0.635-0.103-0.186-0.067-0.345-0.166-0.48-0.291l0.001 0.001c-0.131-0.124-0.236-0.273-0.307-0.441l-0.003-0.009c-0.068-0.165-0.108-0.357-0.108-0.559 0-0.006 0-0.013 0-0.019v0.001c-0-0.009-0-0.019-0-0.030 0-0.396 0.172-0.751 0.444-0.997l0.001-0.001c0.145-0.127 0.318-0.226 0.508-0.293 0.209-0.070 0.431-0.105 0.655-0.103 0.012-0 0.026-0 0.040-0 0.203 0 0.398 0.034 0.58 0.097l-0.012-0.004c0.168 0.064 0.322 0.151 0.456 0.26l-0.142 0.173c-0.010 0.012-0.022 0.023-0.036 0.031l-0.001 0c-0.014 0.008-0.031 0.013-0.049 0.013-0.003 0-0.005-0-0.008-0l0 0c-0.023-0.001-0.044-0.008-0.063-0.018l0.001 0-0.075-0.047-0.106-0.059c-0.097-0.047-0.209-0.083-0.327-0.102l-0.007-0.001c-0.070-0.012-0.151-0.019-0.234-0.019-0.006 0-0.013 0-0.019 0h0.001c-0.005-0-0.010-0-0.015-0-0.163 0-0.319 0.029-0.464 0.081l0.010-0.003c-0.143 0.050-0.266 0.124-0.37 0.218l0.001-0.001c-0.106 0.099-0.186 0.218-0.239 0.346-0.055 0.13-0.086 0.281-0.086 0.44 0 0.006 0 0.011 0 0.017v-0.001c-0 0.006-0 0.012-0 0.019 0 0.16 0.032 0.313 0.089 0.453l-0.003-0.008c0.052 0.127 0.132 0.244 0.235 0.344 0.097 0.093 0.218 0.167 0.352 0.214 0.138 0.050 0.287 0.075 0.436 0.074 0.086 0.001 0.173-0.004 0.259-0.015 0.216-0.022 0.408-0.108 0.561-0.239l-0.001 0.001c0.022-0.018 0.050-0.029 0.080-0.029h0zM10.376 30.58c0 0.005 0 0.011 0 0.017 0 0.201-0.042 0.392-0.118 0.564l0.004-0.009c-0.075 0.175-0.183 0.324-0.317 0.443l-0.001 0.001c-0.141 0.125-0.307 0.224-0.491 0.288l-0.010 0.003c-0.192 0.065-0.414 0.103-0.644 0.103s-0.452-0.038-0.659-0.107l0.015 0.004c-0.192-0.068-0.358-0.168-0.499-0.294l0.001 0.001c-0.136-0.123-0.245-0.272-0.319-0.441l-0.003-0.008c-0.072-0.169-0.114-0.366-0.114-0.573s0.042-0.404 0.118-0.583l-0.004 0.010c0.072-0.168 0.182-0.321 0.322-0.451 0.141-0.124 0.311-0.219 0.497-0.282 0.192-0.067 0.414-0.105 0.644-0.105s0.452 0.038 0.658 0.109l-0.014-0.004c0.188 0.066 0.358 0.166 0.5 0.292 0.14 0.128 0.249 0.28 0.32 0.444 0.078 0.185 0.117 0.38 0.114 0.577zM9.931 30.58c0-0.007 0-0.016 0-0.024 0-0.157-0.030-0.307-0.084-0.445l0.003 0.008c-0.103-0.265-0.314-0.468-0.578-0.559l-0.007-0.002c-0.14-0.048-0.301-0.075-0.468-0.075s-0.328 0.028-0.479 0.079l0.011-0.003c-0.139 0.049-0.259 0.124-0.359 0.218l0-0c-0.099 0.094-0.177 0.209-0.227 0.338l-0.002 0.006c-0.051 0.137-0.081 0.295-0.081 0.46s0.030 0.323 0.084 0.469l-0.003-0.009c0.103 0.266 0.316 0.469 0.581 0.558l0.007 0.002c0.302 0.099 0.634 0.099 0.936 0 0.136-0.047 0.258-0.121 0.357-0.215 0.102-0.1 0.179-0.218 0.227-0.344 0.057-0.148 0.084-0.304 0.081-0.46zM13.715 31.062l0.044 0.103c0.017-0.037 0.032-0.070 0.049-0.103 0.019-0.040 0.037-0.073 0.057-0.105l-0.002 0.004 1.082-1.71c0.022-0.029 0.040-0.048 0.062-0.054s0.048-0.010 0.074-0.010c0.005 0 0.010 0 0.015 0l-0.001-0h0.32v2.782h-0.379v-2.131c-0.001-0.014-0.002-0.031-0.002-0.048s0.001-0.034 0.002-0.050l-0 0.002-1.090 1.734c-0.015 0.027-0.037 0.048-0.063 0.063l-0.001 0c-0.026 0.015-0.058 0.023-0.091 0.023-0.001 0-0.001 0-0.002 0h-0.061c-0.001 0-0.002 0-0.002 0-0.033 0-0.065-0.009-0.092-0.024l0.001 0c-0.027-0.015-0.048-0.036-0.063-0.062l-0-0.001-1.121-1.745v2.232h-0.366v-2.776h0.319c0.004-0 0.010-0 0.015-0 0.026 0 0.052 0.004 0.076 0.010l-0.002-0c0.026 0.012 0.047 0.030 0.059 0.054l1.106 1.712c0.020 0.029 0.038 0.061 0.054 0.096l0.002 0.004zM17.789 30.924v1.041h-0.423v-2.777h0.945c0.179-0.003 0.356 0.018 0.528 0.061 0.137 0.034 0.264 0.093 0.373 0.173 0.090 0.072 0.162 0.163 0.21 0.267l0.002 0.005c0.051 0.113 0.075 0.235 0.072 0.356 0 0.005 0 0.011 0 0.017 0 0.251-0.12 0.474-0.305 0.615l-0.002 0.001c-0.109 0.083-0.237 0.146-0.375 0.183-0.143 0.041-0.307 0.065-0.477 0.065-0.012 0-0.024-0-0.035-0l-0.511-0.008zM17.789 30.626h0.513c0.111 0.002 0.222-0.013 0.329-0.042 0.091-0.027 0.17-0.068 0.239-0.121l-0.002 0.001c0.119-0.098 0.194-0.246 0.194-0.412 0-0.002 0-0.005-0-0.007v0c0.001-0.009 0.001-0.019 0.001-0.030 0-0.071-0.016-0.139-0.044-0.199l0.001 0.003c-0.036-0.075-0.085-0.139-0.147-0.189l-0.001-0.001c-0.142-0.095-0.316-0.152-0.503-0.152-0.024 0-0.047 0.001-0.070 0.003l0.003-0h-0.513v1.145zM23.484 31.969h-0.334c-0.002 0-0.004 0-0.006 0-0.032 0-0.062-0.010-0.087-0.026l0.001 0c-0.024-0.017-0.043-0.038-0.055-0.064l-0-0.001-0.288-0.671h-1.448l-0.298 0.671c-0.026 0.054-0.081 0.090-0.144 0.090-0.001 0-0.003-0-0.004-0h-0.335l1.271-2.782h0.441l1.288 2.782zM21.386 30.937h1.195l-0.504-1.132c-0.039-0.085-0.070-0.173-0.096-0.261l-0.049 0.145c-0.015 0.044-0.031 0.085-0.047 0.118l-0.5 1.13zM25.314 29.201c0.025 0.012 0.047 0.029 0.063 0.049l1.854 2.097v-2.159h0.379v2.782h-0.211c-0.001 0-0.003 0-0.005 0-0.030 0-0.058-0.006-0.084-0.018l0.001 0c-0.026-0.013-0.049-0.031-0.067-0.051l-0-0-1.852-2.095c0.001 0.014 0.002 0.031 0.002 0.048s-0.001 0.034-0.002 0.050l0-0.002v2.067h-0.379v-2.782h0.225c0.026 0 0.052 0.005 0.076 0.013zM30.734 30.864v1.104h-0.424v-1.103l-1.172-1.675h0.379c0.003-0 0.006-0 0.009-0 0.030 0 0.058 0.009 0.082 0.024l-0.001-0c0.023 0.019 0.043 0.040 0.058 0.063l0.733 1.081c0.029 0.047 0.055 0.089 0.076 0.129s0.039 0.079 0.054 0.117l0.054-0.12c0.021-0.044 0.045-0.085 0.072-0.127l0.723-1.088c0.016-0.023 0.034-0.042 0.054-0.059l0-0c0.023-0.017 0.052-0.027 0.084-0.027 0.003 0 0.006 0 0.008 0l-0-0h0.383l-1.173 1.682zM13.505 24.52c0.184 0.020 0.371 0.037 0.559 0.051 2.859-1.111 5.277-2.929 6.953-5.228s2.534-4.975 2.469-7.696l-3.151-2.737c0.641 2.896 0.342 5.89-0.865 8.647s-3.271 5.167-5.965 6.962z"></path>
<path d="M12.38 24.393l0.085 0.016c2.878-1.79 5.072-4.287 6.299-7.171s1.43-6.021 0.583-9.006l-4.487-3.898c1.814 3.205 2.546 6.791 2.106 10.342-0.438 3.551-2.028 6.92-4.585 9.717zM27.598 14.862c-0.762 2.989-2.614 5.685-5.28 7.687-0.728 0.554-1.549 1.073-2.414 1.52l-0.094 0.044c2.171-0.554 4.166-1.534 5.832-2.864s2.958-2.975 3.776-4.808l-1.82-1.58z"></path>
<path d="M26.884 14.422l-2.591-2.251c-0.050 2.567-0.89 5.075-2.432 7.264s-3.733 3.98-6.341 5.185h0.012c0.581 0 1.162-0.031 1.739-0.090 2.438-0.865 4.592-2.24 6.268-4.004s2.826-3.86 3.344-6.104zM12.755 2.688l-3.091-2.689c-2.763 0.928-5.139 2.559-6.819 4.679s-2.581 4.633-2.59 7.206c0.010 2.844 1.112 5.604 3.131 7.843 2.018 2.238 4.839 3.829 8.014 4.518 2.835-3.001 4.494-6.709 4.738-10.586s-0.943-7.72-3.385-10.972zM34.026 14.008c-0.011-3.374-1.559-6.607-4.305-8.994s-6.468-3.731-10.352-3.741c-0.009 0-0.019-0-0.029-0-1.867 0-3.662 0.311-5.335 0.884l0.116-0.034 18.925 16.442c0.617-1.339 0.977-2.906 0.979-4.557v-0.001z"></path>
</symbol>
<symbol id="icon-company-tagline" viewBox="0 0 67 32">
<path d="M33.798 15.059c-0.272-0.35-0.436-0.796-0.436-1.281 0-0.048 0.002-0.095 0.005-0.143l-0 0.006v-2.055c0-0.629 0.143-1.108 0.429-1.436 0.285-0.328 0.776-0.49 1.472-0.489 0.654 0 1.118 0.14 1.392 0.418 0.299 0.356 0.445 0.79 0.412 1.229v0.483h-1.169v-0.49c0.004-0.16-0.007-0.32-0.034-0.478-0.020-0.116-0.081-0.215-0.167-0.284l-0.001-0.001c-0.105-0.070-0.234-0.112-0.373-0.112-0.018 0-0.035 0.001-0.052 0.002l0.002-0c-0.015-0.001-0.033-0.002-0.051-0.002-0.147 0-0.284 0.044-0.397 0.12l0.003-0.002c-0.097 0.078-0.166 0.186-0.193 0.31l-0.001 0.004c-0.030 0.141-0.047 0.303-0.047 0.468 0 0.014 0 0.028 0 0.042l-0-0.002v2.494c-0.019 0.24 0.033 0.481 0.15 0.7 0.061 0.075 0.14 0.133 0.23 0.168l0.004 0.001c0.069 0.027 0.148 0.043 0.231 0.043 0.025 0 0.050-0.001 0.074-0.004l-0.003 0c0.015 0.001 0.032 0.002 0.049 0.002 0.136 0 0.263-0.043 0.366-0.116l-0.002 0.001c0.090-0.075 0.153-0.18 0.174-0.3l0-0.003c0.027-0.165 0.040-0.333 0.036-0.5v-0.506h1.169v0.462c0.003 0.037 0.004 0.079 0.004 0.122 0 0.444-0.154 0.852-0.411 1.174l0.003-0.004c-0.269 0.305-0.727 0.458-1.4 0.458s-1.182-0.163-1.47-0.502zM38.667 15.080c-0.296-0.321-0.443-0.786-0.443-1.403v-2.162c0-0.611 0.148-1.073 0.443-1.386s0.789-0.47 1.482-0.468c0.688 0 1.179 0.157 1.474 0.468 0.295 0.314 0.445 0.775 0.445 1.386v2.161c0 0.611-0.15 1.079-0.45 1.401s-0.789 0.482-1.47 0.482-1.184-0.163-1.482-0.48zM40.693 14.561c0.106-0.2 0.154-0.42 0.14-0.639v-2.647c0.001-0.021 0.002-0.046 0.002-0.071 0-0.204-0.052-0.395-0.143-0.562l0.003 0.006c-0.062-0.076-0.143-0.136-0.235-0.171l-0.004-0.001c-0.068-0.027-0.147-0.042-0.229-0.042-0.028 0-0.056 0.002-0.083 0.005l0.003-0c-0.024-0.003-0.051-0.005-0.079-0.005-0.083 0-0.162 0.015-0.235 0.043l0.004-0.002c-0.097 0.037-0.178 0.096-0.239 0.171l-0.001 0.001c-0.107 0.195-0.155 0.411-0.14 0.627v2.658c-0.014 0.22 0.033 0.44 0.14 0.64 0.068 0.067 0.153 0.121 0.247 0.158 0.089 0.036 0.192 0.057 0.3 0.057s0.211-0.021 0.306-0.059l-0.006 0.002c0.095-0.037 0.178-0.091 0.247-0.158v-0.013zM43.475 9.725h1.259l0.946 3.987 0.969-3.987h1.224l0.124 5.755h-0.906l-0.097-4-0.934 4h-0.727l-0.968-4.015-0.090 4.015h-0.915l0.114-5.755zM49.409 9.725h1.961c1.13 0 1.695 0.544 1.695 1.634 0 1.043-0.595 1.565-1.785 1.564h-0.668v2.558h-1.211l0.007-5.756zM51.085 12.184c0.12 0.014 0.241 0.004 0.356-0.028 0.114-0.031 0.221-0.083 0.309-0.154 0.139-0.195 0.2-0.423 0.175-0.65 0.001-0.019 0.001-0.041 0.001-0.063 0-0.163-0.022-0.321-0.062-0.472l0.003 0.013c-0.019-0.061-0.050-0.114-0.089-0.159l0 0c-0.042-0.047-0.093-0.086-0.15-0.114l-0.003-0.001c-0.141-0.060-0.305-0.094-0.477-0.094-0.022 0-0.044 0.001-0.066 0.002l0.003-0h-0.47v1.72h0.47zM54.811 9.725h1.3l1.334 5.755h-1.129l-0.264-1.327h-1.16l-0.271 1.327h-1.145l1.333-5.755zM55.922 13.487l-0.453-2.416-0.453 2.416h0.905zM58.522 9.725h0.848l1.621 3.283v-3.283h1.005v5.755h-0.806l-1.632-3.428v3.428h-1.038l0.002-5.755zM64.349 13.285l-1.348-3.553h1.136l0.823 2.283 0.772-2.283h1.112l-1.332 3.553v2.194h-1.162v-2.195zM35.667 17.998v0.301h-0.988v2.339h-0.414v-2.339h-0.993v-0.301h2.395zM38.764 20.637h-0.32c-0.003 0-0.006 0-0.009 0-0.030 0-0.058-0.009-0.081-0.026l0 0c-0.023-0.015-0.041-0.035-0.052-0.060l-0-0.001-0.286-0.627h-1.37l-0.285 0.627c-0.009 0.028-0.024 0.052-0.044 0.071l-0 0c-0.023 0.016-0.052 0.025-0.083 0.025-0.003 0-0.005-0-0.008-0h-0.319l1.211-2.64h0.42l1.226 2.63zM36.759 19.657h1.142l-0.485-1.075c-0.031-0.068-0.061-0.15-0.086-0.235l-0.003-0.014c-0.017 0.050-0.031 0.098-0.046 0.14l-0.044 0.11-0.479 1.073zM40.851 20.378c0.076 0.004 0.152 0.004 0.228 0 0.065-0.006 0.13-0.016 0.193-0.031 0.059-0.012 0.118-0.029 0.175-0.048 0.053-0.019 0.107-0.042 0.162-0.065v-0.594h-0.484c-0.001 0-0.003 0-0.004 0-0.023 0-0.045-0.008-0.061-0.022l0 0c-0.008-0.006-0.014-0.013-0.018-0.021l-0-0c-0.004-0.007-0.006-0.015-0.006-0.024 0-0.001 0-0.002 0-0.003v0-0.202h0.939v1.012c-0.147 0.091-0.317 0.165-0.498 0.212l-0.013 0.003c-0.1 0.026-0.2 0.043-0.303 0.055-0.118 0.011-0.235 0.016-0.353 0.016-0.005 0-0.010 0-0.015 0-0.213 0-0.417-0.036-0.608-0.102l0.013 0.004c-0.187-0.065-0.348-0.159-0.487-0.277l0.002 0.002c-0.129-0.115-0.235-0.254-0.309-0.41l-0.003-0.008c-0.070-0.156-0.111-0.338-0.111-0.53 0-0.006 0-0.012 0-0.019v0.001c-0-0.005-0-0.010-0-0.016 0-0.193 0.040-0.378 0.113-0.544l-0.003 0.009c0.069-0.157 0.176-0.299 0.312-0.418 0.138-0.119 0.303-0.212 0.485-0.274 0.207-0.068 0.428-0.101 0.649-0.098 0.113 0 0.225 0.007 0.336 0.023 0.098 0.014 0.195 0.036 0.288 0.067 0.086 0.027 0.166 0.063 0.242 0.105 0.074 0.041 0.145 0.087 0.211 0.138l-0.116 0.163c-0.010 0.015-0.023 0.027-0.039 0.035l-0.001 0c-0.016 0.009-0.035 0.014-0.056 0.014h-0c-0.028-0.001-0.053-0.008-0.076-0.021l0.001 0c-0.049-0.023-0.088-0.044-0.126-0.067l0.007 0.004c-0.045-0.025-0.099-0.049-0.154-0.069l-0.008-0.002c-0.062-0.022-0.137-0.043-0.214-0.057l-0.009-0.001c-0.087-0.015-0.188-0.023-0.291-0.023-0.006 0-0.011 0-0.017 0h0.001c-0.004-0-0.010-0-0.015-0-0.162 0-0.318 0.027-0.463 0.076l0.010-0.003c-0.135 0.046-0.257 0.118-0.356 0.209-0.096 0.090-0.172 0.199-0.222 0.322l-0.002 0.006c-0.051 0.131-0.081 0.282-0.081 0.44s0.030 0.309 0.084 0.448l-0.003-0.008c0.053 0.124 0.135 0.237 0.242 0.333 0.099 0.090 0.219 0.162 0.353 0.209 0.154 0.046 0.317 0.063 0.48 0.052zM44.71 20.337h1.322v0.301h-1.725v-2.64h0.413l-0.009 2.339zM47.407 20.637h-0.413v-2.64h0.413v2.64zM48.947 18.010c0.025 0.012 0.046 0.028 0.063 0.048l0 0 1.77 1.99c-0.001-0.014-0.002-0.030-0.002-0.047s0.001-0.033 0.002-0.049l-0 0.002v-1.967h0.361v2.651h-0.208c-0.004 0-0.009 0-0.014 0-0.028 0-0.054-0.006-0.078-0.016l0.001 0c-0.025-0.013-0.047-0.030-0.065-0.050l-0-0-1.767-1.988v2.052h-0.346v-2.64h0.215c0.024 0 0.047 0.004 0.068 0.012zM54.188 17.998v0.29h-1.467v0.872h1.189v0.28h-1.189v0.902h1.467v0.29h-1.893v-2.633h1.893zM10.805 1.695l18.383 4.506v15.791l-18.383-4.504v-15.794zM9.626 0.348v17.907l20.739 5.086v-17.905l-20.738-5.087z"></path>
<path d="M20.741 31.652l-20.741-5.090v-17.904l20.741 5.088v17.906z"></path>
<path d="M9.97 1.491l18.143 4.45-7.715 6.663-18.147-4.452 7.719-6.662zM9.626 0.348l-9.626 8.31 20.741 5.088 9.624-8.312-20.739-5.086zM21.908 30.645l8.457-7.304-8.458-2.074v9.379z"></path>
</symbol>
<symbol id="icon-company-tagline-here" viewBox="0 0 25 32">
<path d="M10.532 1.806h-0.084c-0.129-0.008-0.258-0.011-0.388-0.014h-0.28c-0.244 0-0.494 0.006-0.741 0.018-0.008-0.001-0.018-0.001-0.028-0.001s-0.020 0-0.029 0.001l0.001-0c-2.376 0.138-4.582 0.733-6.576 1.696l0.104-0.045-0.266 0.128v13.626l0.623-0.212c0.546-0.188 1.129-0.357 1.731-0.513 1.488-0.398 3.202-0.638 4.967-0.661l0.014-0v1.79c-0.223 0.001-0.439 0.007-0.655 0.018h-0.052c-1.399 0.079-2.709 0.289-3.971 0.619l0.139-0.031c-1.734 0.441-3.254 1.050-4.666 1.83l0.1-0.051v-17.475c1.379-0.82 2.975-1.488 4.665-1.921l0.127-0.028c1.353-0.364 2.907-0.576 4.51-0.582h0.267c0.314 0.008 0.622 0.022 0.91 0.044 0.829 0.060 1.597 0.187 2.339 0.378l-0.090-0.020v1.762c-0.628-0.154-1.373-0.271-2.134-0.326l-0.045-0.003-0.044-0.004c-0.152-0.013-0.304-0.026-0.446-0.026zM13.633 3.607c0.391 0.030 0.796 0.044 1.205 0.044 1.689-0.007 3.324-0.228 4.881-0.639l-0.135 0.030c1.734-0.442 3.252-1.052 4.665-1.831l-0.101 0.051v17.163c-1.379 0.819-2.975 1.487-4.664 1.921l-0.127 0.028c-1.353 0.363-2.908 0.574-4.511 0.581h-0.004c-0.033 0-0.072 0-0.111 0-1.177 0-2.319-0.147-3.409-0.425l0.095 0.021v-17.275c0.265 0.062 0.537 0.118 0.814 0.164 0.455 0.077 0.934 0.133 1.401 0.167zM22.367 3.74l-0.623 0.209c-0.572 0.193-1.151 0.365-1.731 0.518-1.551 0.415-3.332 0.657-5.169 0.663h-0.004c-0.406 0-0.78-0.011-1.141-0.034l-0.497-0.033v14.017l0.426 0.037c0.395 0.035 0.803 0.052 1.214 0.052 1.45-0.006 2.853-0.198 4.189-0.553l-0.116 0.026c1.221-0.31 2.281-0.702 3.285-1.189l-0.102 0.044 0.266-0.128v-13.63z"></path>
<path d="M1.684 25.977c-0.167-0.173-0.401-0.281-0.661-0.281-0.011 0-0.023 0-0.034 0.001l0.002-0c-0.004-0-0.009-0-0.014-0-0.139 0-0.272 0.028-0.393 0.078l0.007-0.003c-0.237 0.095-0.42 0.28-0.51 0.512l-0.002 0.006c-0.049 0.123-0.073 0.254-0.071 0.386v2.335c-0.006 0.164 0.026 0.328 0.092 0.479 0.055 0.12 0.135 0.226 0.234 0.313 0.093 0.078 0.202 0.135 0.32 0.166 0.114 0.031 0.231 0.048 0.349 0.048 0.13 0.001 0.258-0.026 0.377-0.081 0.351-0.156 0.591-0.5 0.591-0.901v-0.261h-0.611v0.208c0 0.004 0 0.009 0 0.014 0 0.070-0.013 0.136-0.037 0.198l0.001-0.004c-0.021 0.052-0.051 0.095-0.089 0.132l-0 0c-0.070 0.054-0.159 0.088-0.255 0.089h-0c-0.011 0.001-0.023 0.002-0.036 0.002-0.103 0-0.194-0.050-0.25-0.127l-0.001-0.001c-0.051-0.082-0.082-0.182-0.082-0.289 0-0.008 0-0.016 0.001-0.024l-0 0.001v-2.177c-0.004-0.121 0.022-0.24 0.075-0.349 0.056-0.087 0.153-0.143 0.262-0.143 0.013 0 0.025 0.001 0.038 0.002l-0.001-0c0.003-0 0.007-0 0.012-0 0.107 0 0.201 0.052 0.26 0.131l0.001 0.001c0.063 0.082 0.101 0.187 0.101 0.3 0 0.005-0 0.009-0 0.014v-0.001 0.202h0.604v-0.238c0-0.003 0-0.007 0-0.011 0-0.143-0.027-0.28-0.077-0.405l0.003 0.007c-0.048-0.128-0.117-0.237-0.205-0.329l0 0zM5.31 25.951c-0.186-0.158-0.429-0.255-0.694-0.257h-0c-0.124 0-0.248 0.023-0.364 0.066-0.252 0.090-0.451 0.276-0.557 0.511l-0.002 0.006c-0.062 0.142-0.092 0.297-0.089 0.452v2.239c-0.004 0.158 0.026 0.314 0.089 0.458 0.055 0.121 0.135 0.228 0.236 0.313 0.094 0.086 0.203 0.154 0.322 0.197 0.117 0.043 0.24 0.065 0.364 0.066 0.267-0.001 0.51-0.1 0.695-0.264l-0.001 0.001c0.097-0.087 0.176-0.194 0.23-0.313 0.063-0.144 0.093-0.301 0.089-0.458v-2.239c0-0.006 0-0.013 0-0.020 0-0.156-0.033-0.305-0.092-0.439l0.003 0.007c-0.057-0.128-0.135-0.237-0.23-0.327l-0-0zM5.025 28.969c0.001 0.010 0.002 0.023 0.002 0.035 0 0.114-0.047 0.216-0.123 0.289l-0 0c-0.077 0.065-0.178 0.105-0.287 0.105s-0.21-0.040-0.288-0.105l0.001 0.001c-0.076-0.073-0.123-0.175-0.123-0.289 0-0.012 0.001-0.025 0.002-0.037l-0 0.002v-2.239c-0.001-0.010-0.001-0.022-0.001-0.034 0-0.113 0.047-0.216 0.123-0.289l0-0c0.077-0.065 0.178-0.105 0.287-0.105s0.21 0.040 0.288 0.105l-0.001-0.001c0.076 0.073 0.123 0.175 0.123 0.289 0 0.012-0.001 0.025-0.002 0.037l0-0.002v2.24zM10.072 29.969v-4.24h-0.586l-0.771 2.244h-0.010l-0.777-2.244h-0.58v4.239h0.606v-2.578h0.011l0.593 1.823h0.302l0.598-1.823h0.010v2.578h0.606zM13.513 26.027c-0.093-0.105-0.211-0.185-0.342-0.232-0.124-0.042-0.267-0.066-0.416-0.066-0.008 0-0.016 0-0.024 0l0.001-0h-0.9v4.24h0.604v-1.656h0.311c0.189 0.009 0.376-0.031 0.545-0.116 0.139-0.078 0.251-0.188 0.329-0.32l0.002-0.004c0.070-0.113 0.117-0.238 0.138-0.369 0.021-0.133 0.033-0.287 0.033-0.444 0-0.013-0-0.027-0-0.040l0 0.002c0.006-0.203-0.014-0.407-0.059-0.606-0.043-0.153-0.12-0.284-0.223-0.39l0 0zM13.201 27.319c-0.003 0.081-0.023 0.157-0.057 0.224l0.001-0.003c-0.035 0.065-0.089 0.116-0.154 0.147l-0.002 0.001c-0.075 0.034-0.162 0.054-0.254 0.054-0.011 0-0.022-0-0.033-0.001l0.002 0h-0.276v-1.441h0.311c0.009-0 0.019-0.001 0.029-0.001 0.088 0 0.172 0.020 0.247 0.055l-0.004-0.002c0.062 0.036 0.111 0.090 0.141 0.154l0.001 0.002c0.033 0.074 0.051 0.155 0.053 0.236v0.282c0 0.098 0.006 0.201 0 0.291h-0.006zM16.374 25.729h-0.495l-0.934 4.24h0.604l0.177-0.911h0.823l0.178 0.911h0.604l-0.958-4.24zM15.817 28.481l0.297-1.537h0.011l0.295 1.537h-0.604zM20.277 28.283h-0.011l-0.912-2.554h-0.581v4.24h0.604v-2.55h0.012l0.923 2.549h0.568v-4.239h-0.604v2.554zM23.968 25.729l-0.486 1.686h-0.012l-0.486-1.686h-0.639l0.83 2.448v1.791h0.604v-1.791l0.83-2.447h-0.64zM0 31.166h0.291v0.817h0.198v-0.817h0.289v-0.167h-0.778v0.168zM2.447 30.998l-0.382 0.985h0.21l0.081-0.224h0.392l0.084 0.224h0.215l-0.391-0.985h-0.21zM2.417 31.593l0.134-0.365 0.134 0.365h-0.268zM4.866 31.62h0.228v0.127c-0.063 0.051-0.145 0.082-0.234 0.083h-0c-0.004 0-0.009 0-0.014 0-0.079 0-0.149-0.037-0.195-0.094l-0-0c-0.046-0.065-0.073-0.147-0.073-0.234 0-0.008 0-0.016 0.001-0.023l-0 0.001c0-0.219 0.095-0.329 0.283-0.329 0.006-0.001 0.014-0.001 0.021-0.001 0.097 0 0.178 0.067 0.201 0.157l0 0.001 0.194-0.038c-0.042-0.192-0.18-0.289-0.417-0.289-0.004-0-0.008-0-0.013-0-0.127 0-0.244 0.048-0.331 0.127l0-0c-0.088 0.087-0.143 0.208-0.143 0.342 0 0.013 0 0.026 0.002 0.038l-0-0.002c-0 0.007-0 0.015-0 0.023 0 0.132 0.048 0.254 0.127 0.347l-0.001-0.001c0.087 0.090 0.209 0.146 0.343 0.146 0.011 0 0.021-0 0.032-0.001l-0.001 0c0.005 0 0.010 0 0.016 0 0.155 0 0.296-0.060 0.402-0.157l-0 0v-0.388h-0.426v0.166zM7.337 30.998h-0.199v0.985h0.689v-0.167h-0.49v-0.817zM9.426 30.998h-0.199v0.985h0.199v-0.985zM11.469 31.655l-0.404-0.657h-0.193v0.985h0.185v-0.643l0.396 0.643h0.198v-0.985h-0.182v0.658zM13.315 31.549h0.49v-0.167h-0.49v-0.215h0.527v-0.168h-0.727v0.985h0.747v-0.167h-0.548v-0.266zM17.792 31.386h-0.388v-0.388h-0.197v0.984h0.197v-0.431h0.388v0.431h0.198v-0.985h-0.198v0.388zM19.649 31.549h0.492v-0.167h-0.492v-0.215h0.529v-0.168h-0.726v0.985h0.746v-0.167h-0.548v-0.266zM22.168 31.55c0.171-0.027 0.258-0.118 0.258-0.274 0.001-0.008 0.002-0.018 0.002-0.028 0-0.079-0.038-0.148-0.098-0.191l-0.001-0c-0.073-0.037-0.159-0.059-0.25-0.059-0.014 0-0.027 0-0.040 0.001l0.002-0h-0.417v0.984h0.198v-0.412h0.039c0.005-0 0.010-0 0.016-0 0.039 0 0.076 0.008 0.109 0.023l-0.002-0.001c0.029 0.018 0.053 0.042 0.070 0.072l0.215 0.313h0.236l-0.12-0.192c-0.054-0.096-0.128-0.175-0.215-0.235l-0.002-0.002zM21.969 31.413h-0.146v-0.247h0.156c0.012-0.001 0.027-0.002 0.042-0.002 0.057 0 0.111 0.009 0.163 0.026l-0.004-0.001c0.026 0.024 0.043 0.058 0.043 0.096 0 0.042-0.020 0.080-0.052 0.104l-0 0c-0.049 0.016-0.106 0.025-0.164 0.025-0.013 0-0.026-0-0.039-0.001l0.002 0zM24.068 31.549h0.49v-0.167h-0.49v-0.215h0.529v-0.168h-0.729v0.985h0.747v-0.167h-0.548v-0.266z"></path>
</symbol>
<symbol id="icon-diagram" viewBox="0 0 32 32">
<path fill="#2196f3" style="fill: var(--color2, #2196f3)" d="M14.926 14.945h1.066v4.798h-1.066v-4.798zM19.19 17.078h1.066v2.665h-1.066v-2.665zM10.661 18.677h1.066v1.066h-1.066v-1.066zM7.463 18.143h1.066v1.599h-1.066v-1.599z"></path>
<path fill="#212121" style="fill: var(--color1, #212121)" d="M1.599 28.272h25.587c0 0 0 0 0 0 0.883 0 1.599-0.716 1.599-1.599v0-2.132c0-0.883-0.716-1.599-1.599-1.599v0h-0.533v-13.294l3.028-2.868c0.207 0.104 0.452 0.166 0.711 0.166 0.888 0 1.608-0.72 1.608-1.608s-0.72-1.608-1.608-1.608c-0.888 0-1.608 0.72-1.608 1.608 0 0.247 0.056 0.481 0.155 0.69l-0.004-0.010-2.281 2.162v-1.23c0-0.883-0.716-1.599-1.599-1.599v0h-21.323c-0.883 0-1.599 0.716-1.599 1.599v0 15.992h-0.533c-0.883 0-1.599 0.716-1.599 1.599v0 2.132c0 0.883 0.716 1.599 1.599 1.599v0zM30.384 4.817c0.294 0 0.533 0.239 0.533 0.533s-0.239 0.533-0.533 0.533v0c-0.294 0-0.533-0.239-0.533-0.533s0.239-0.533 0.533-0.533v0zM3.198 6.949c0-0.294 0.239-0.533 0.533-0.533h21.323c0.294 0 0.533 0.239 0.533 0.533v2.239l-1.066 1.013v-2.185c0-0.295-0.239-0.534-0.534-0.534h-19.19c-0.294 0-0.534 0.239-0.534 0.533v13.327c0 0.294 0.239 0.533 0.534 0.533h19.19c0.295 0 0.534-0.239 0.534-0.533v-9.675l1.066-1.010v12.284h-22.389v-15.991zM7.996 13.879c-0.001 0-0.003 0-0.005 0-0.883 0-1.599 0.716-1.599 1.599s0.716 1.599 1.599 1.599c0.432 0 0.824-0.172 1.112-0.45l-0 0 1.853 0.93c0.215 0.107 0.476 0.057 0.636-0.122l3.939-4.432 3.872 2.902c0.208 0.155 0.498 0.139 0.686-0.039l3.365-3.188v8.131h-18.124v-12.261h18.124v2.661l-3.771 3.572-3.904-2.927c-0.088-0.067-0.2-0.107-0.32-0.107-0.158 0-0.3 0.069-0.398 0.178l-0 0.001-3.993 4.493-1.493-0.746c0.011-0.064 0.017-0.128 0.020-0.193 0-0.883-0.716-1.599-1.599-1.599v0zM8.529 15.478c0 0.294-0.239 0.533-0.533 0.533s-0.533-0.239-0.533-0.533v0c0-0.294 0.239-0.533 0.533-0.533s0.533 0.239 0.533 0.533v0zM11.727 24.007h5.33v0.533c0 0.294-0.238 0.533-0.533 0.533h-4.265c-0.294 0-0.533-0.239-0.533-0.533v0-0.533zM1.067 24.54c0-0.294 0.238-0.533 0.533-0.533h9.062v0.533c0 0.883 0.716 1.599 1.599 1.599v0h4.265c0.883 0 1.599-0.716 1.599-1.599v0-0.533h9.062c0.294 0 0.533 0.239 0.533 0.533v2.132c0 0.294-0.239 0.533-0.533 0.533h-25.587c-0 0-0 0-0 0-0.294 0-0.533-0.239-0.533-0.533 0 0 0 0 0 0v0-2.132z"></path>
</symbol>
<symbol id="icon-envelope" viewBox="0 0 43 32">
<path d="M38.657 0.004h-34.658c-2.205 0-3.999 1.794-3.999 3.999v23.994c0 2.205 1.794 3.999 3.999 3.999h34.658c2.205 0 3.999-1.794 3.999-3.999v-23.994c0-2.205-1.794-3.999-3.999-3.999zM38.657 2.67c0.181 0 0.355 0.037 0.512 0.104l-17.841 15.463-17.841-15.463c0.151-0.065 0.327-0.103 0.512-0.104h34.659zM38.657 29.33h-34.658c-0.736 0-1.333-0.597-1.333-1.333v0-22.408l17.788 15.418c0.233 0.203 0.539 0.327 0.874 0.327s0.642-0.124 0.876-0.328l-0.002 0.001 17.788-15.418v22.408c0 0.736-0.597 1.333-1.333 1.333v0z"></path>
</symbol>
<symbol id="icon-facebook" viewBox="0 0 32 32">
<path d="M21.078 5.312h2.923v-5.088c-1.232-0.143-2.66-0.224-4.108-0.224-0.052 0-0.104 0-0.156 0l0.008-0c-4.213 0-7.099 2.65-7.099 7.52v4.48h-4.646v5.688h4.646v14.312h5.699v-14.31h4.459l0.707-5.688h-5.168v-3.922c0-1.643 0.443-2.768 2.734-2.768z"></path>
</symbol>
<symbol id="icon-foster-petters" viewBox="0 0 65 32">
<path d="M15.667 9.77h-0.002c-1.889 0-3.42 1.36-3.42 3.040v0.002c0 1.679 1.531 3.040 3.42 3.040h0.002c1.889 0 3.42-1.361 3.42-3.040v-0.002c0-1.679-1.531-3.041-3.42-3.041zM40.914 8.799c-0.006-2.332-1.050-4.567-2.905-6.216s-4.37-2.577-6.993-2.583c-2.625 0.004-5.141 0.933-6.997 2.581s-2.901 3.884-2.907 6.217v12.858s19.799-1.96 19.801-12.856v-0.002zM5.312 25.877c0.005 1.623 0.733 3.177 2.023 4.325s3.040 1.794 4.865 1.798c1.825-0.005 3.574-0.651 4.865-1.798s2.018-2.701 2.023-4.323v-8.947s-13.776 1.365-13.776 8.946zM12.2 27.479c-0.357 0-0.705-0.094-1.002-0.27-0.289-0.17-0.516-0.415-0.66-0.709l-0.004-0.010c-0.086-0.179-0.137-0.39-0.137-0.612 0-0.111 0.013-0.219 0.036-0.323l-0.002 0.010c0.069-0.311 0.241-0.597 0.493-0.821 0.251-0.221 0.565-0.376 0.912-0.437l0.011-0.002c0.106-0.020 0.228-0.031 0.353-0.031 0.247 0 0.485 0.045 0.704 0.126l-0.014-0.005c0.33 0.121 0.612 0.327 0.81 0.591s0.304 0.573 0.304 0.89c0.001 0.211-0.045 0.421-0.136 0.616-0.097 0.205-0.229 0.378-0.389 0.52l-0.002 0.001c-0.167 0.15-0.366 0.268-0.586 0.349-0.205 0.078-0.443 0.123-0.69 0.123-0 0-0.001 0-0.001 0h0v-0.006zM26.122 26.597h-1.33v1.373h-0.692v-3.361h2.188v0.561h-1.496v0.868h1.33v0.558zM29.45 26.366c0 0.331-0.058 0.621-0.175 0.87s-0.285 0.441-0.504 0.577c-0.206 0.128-0.455 0.203-0.722 0.203-0.009 0-0.017-0-0.026-0l0.001 0c-0.279 0-0.528-0.067-0.746-0.201-0.221-0.138-0.395-0.333-0.504-0.565l-0.003-0.008c-0.116-0.244-0.183-0.529-0.183-0.831 0-0.010 0-0.020 0-0.029l-0 0.002v-0.165c0-0.331 0.060-0.622 0.178-0.873 0.12-0.252 0.288-0.446 0.506-0.579 0.218-0.136 0.467-0.203 0.748-0.203s0.528 0.068 0.745 0.203c0.218 0.134 0.387 0.327 0.506 0.579 0.12 0.25 0.18 0.54 0.18 0.87v0.15zM28.749 26.213c0-0.352-0.063-0.62-0.189-0.803-0.112-0.167-0.3-0.275-0.513-0.275-0.010 0-0.019 0-0.028 0.001l0.001-0c-0.008-0-0.017-0.001-0.026-0.001-0.212 0-0.4 0.107-0.51 0.271l-0.001 0.002c-0.126 0.18-0.19 0.444-0.191 0.794v0.164c0 0.343 0.063 0.609 0.189 0.798s0.307 0.284 0.545 0.284c0.008 0 0.018 0.001 0.027 0.001 0.211 0 0.397-0.107 0.507-0.27l0.001-0.002c0.124-0.183 0.188-0.449 0.189-0.799v-0.164zM31.695 27.088c0-0.006 0.001-0.013 0.001-0.020 0-0.114-0.054-0.215-0.138-0.279l-0.001-0.001c-0.092-0.071-0.258-0.145-0.499-0.221-0.221-0.069-0.41-0.147-0.59-0.24l0.020 0.009c-0.382-0.206-0.573-0.484-0.573-0.833 0-0.181 0.050-0.343 0.152-0.484 0.103-0.143 0.25-0.254 0.441-0.335 0.192-0.080 0.408-0.12 0.646-0.12 0.24 0 0.454 0.043 0.642 0.132 0.188 0.087 0.333 0.208 0.436 0.367 0.105 0.158 0.158 0.339 0.158 0.54h-0.693c0-0.154-0.047-0.273-0.145-0.358-0.097-0.087-0.233-0.129-0.408-0.129-0.169 0-0.301 0.036-0.395 0.109-0.086 0.062-0.141 0.161-0.141 0.273 0 0.003 0 0.005 0 0.008v-0c0 0.11 0.055 0.201 0.164 0.275 0.11 0.073 0.273 0.143 0.487 0.207 0.394 0.118 0.681 0.265 0.861 0.441s0.27 0.394 0.27 0.655c0 0.291-0.11 0.52-0.331 0.685s-0.515 0.247-0.888 0.247c-0.258 0-0.494-0.047-0.707-0.142-0.199-0.085-0.364-0.218-0.485-0.386l-0.002-0.003c-0.104-0.155-0.166-0.346-0.166-0.551 0-0.008 0-0.015 0-0.022l-0 0.001h0.694c0 0.37 0.221 0.556 0.665 0.556 0.165 0 0.293-0.033 0.386-0.099 0.084-0.060 0.138-0.158 0.138-0.268 0-0.005-0-0.009-0-0.014l0 0.001zM35.39 25.17h-1.029v2.8h-0.693v-2.8h-1.014v-0.561h2.737v0.561zM37.808 26.514h-1.329v0.9h1.56v0.556h-2.252v-3.361h2.248v0.561h-1.556v0.801h1.33v0.542zM39.69 26.74h-0.551v1.23h-0.692v-3.361h1.249c0.397 0 0.703 0.089 0.919 0.265s0.323 0.427 0.323 0.75c0 0.229-0.050 0.421-0.15 0.575-0.111 0.161-0.264 0.287-0.443 0.362l-0.007 0.003 0.726 1.373v0.032h-0.743l-0.63-1.229zM39.138 26.179h0.559c0.173 0 0.307-0.043 0.403-0.131 0.088-0.087 0.143-0.208 0.143-0.341 0-0.009-0-0.018-0.001-0.027l0 0.001c0-0.159-0.045-0.284-0.136-0.374s-0.227-0.136-0.414-0.136h-0.556v1.008zM43.334 26.786v1.184h-0.692v-3.361h1.311c0.252 0 0.474 0.046 0.665 0.139 0.192 0.092 0.34 0.224 0.443 0.395 0.102 0.169 0.154 0.362 0.154 0.579 0 0.329-0.113 0.589-0.339 0.78-0.225 0.189-0.536 0.284-0.935 0.284h-0.607zM43.334 26.225h0.618c0.184 0 0.323-0.043 0.417-0.129 0.098-0.087 0.146-0.21 0.146-0.369 0-0.007 0.001-0.016 0.001-0.025 0-0.145-0.055-0.276-0.146-0.375l0 0c-0.097-0.101-0.231-0.154-0.402-0.157h-0.635v1.056zM47.713 26.514h-1.329v0.9h1.56v0.556h-2.252v-3.361h2.248v0.561h-1.556v0.801h1.33v0.542zM50.927 25.17h-1.030v2.8h-0.692v-2.8h-1.015v-0.561h2.737v0.561zM53.345 26.514h-1.328v0.9h1.56v0.556h-2.253v-3.361h2.248v0.561h-1.555v0.801h1.329v0.542zM55.226 26.74h-0.551v1.23h-0.693v-3.361h1.249c0.397 0 0.703 0.089 0.919 0.265s0.323 0.427 0.323 0.75c0 0.229-0.050 0.421-0.15 0.575-0.111 0.162-0.265 0.287-0.444 0.362l-0.007 0.003 0.727 1.373v0.032h-0.743l-0.63-1.229zM54.675 26.179h0.559c0.173 0 0.308-0.043 0.403-0.131 0.089-0.087 0.144-0.208 0.144-0.342 0-0.009-0-0.018-0.001-0.026l0 0.001c0-0.159-0.045-0.284-0.136-0.374-0.089-0.091-0.227-0.136-0.413-0.136h-0.556v1.008zM58.743 27.089c0-0.006 0.001-0.013 0.001-0.020 0-0.114-0.054-0.215-0.138-0.28l-0.001-0.001c-0.092-0.071-0.258-0.145-0.499-0.221-0.221-0.069-0.41-0.147-0.59-0.24l0.020 0.009c-0.382-0.206-0.573-0.484-0.573-0.833 0-0.181 0.051-0.343 0.152-0.484 0.103-0.143 0.251-0.254 0.441-0.335 0.192-0.080 0.408-0.12 0.646-0.12 0.24 0 0.454 0.043 0.642 0.132 0.188 0.087 0.333 0.208 0.436 0.367 0.105 0.158 0.158 0.339 0.158 0.54h-0.693c0-0.154-0.047-0.273-0.145-0.358-0.097-0.087-0.233-0.129-0.408-0.129-0.169 0-0.301 0.036-0.395 0.109-0.086 0.062-0.142 0.161-0.142 0.274 0 0.003 0 0.005 0 0.008v-0c0 0.11 0.055 0.201 0.165 0.275s0.273 0.143 0.487 0.207c0.394 0.118 0.681 0.265 0.861 0.441s0.27 0.394 0.27 0.655c0 0.291-0.11 0.52-0.331 0.685s-0.516 0.247-0.888 0.247c-0.258 0-0.494-0.047-0.707-0.142-0.199-0.085-0.364-0.218-0.485-0.386l-0.002-0.003c-0.104-0.155-0.166-0.346-0.166-0.551 0-0.008 0-0.015 0-0.022l-0 0.001h0.694c0 0.37 0.221 0.556 0.665 0.556 0.165 0 0.293-0.033 0.385-0.099 0.084-0.060 0.139-0.158 0.139-0.269 0-0.004-0-0.009-0-0.013l0 0.001z"></path>
</symbol>
<symbol id="icon-instagram" viewBox="0 0 32 32">
<path d="M31.915 9.408c-0.074-1.701-0.349-2.869-0.742-3.882-0.424-1.111-1.054-2.059-1.85-2.837l-0.001-0.001c-0.78-0.792-1.724-1.419-2.778-1.827l-0.054-0.018c-1.019-0.394-2.181-0.667-3.882-0.742-1.712-0.082-2.256-0.101-6.602-0.101-4.344 0-4.888 0.019-6.595 0.094-1.699 0.074-2.869 0.349-3.88 0.742-1.112 0.424-2.060 1.054-2.839 1.85l-0.001 0.001c-0.791 0.78-1.418 1.724-1.825 2.778l-0.018 0.054c-0.395 1.019-0.669 2.181-0.744 3.882-0.082 1.712-0.101 2.256-0.101 6.602 0 4.344 0.019 4.888 0.094 6.595 0.075 1.701 0.35 2.869 0.744 3.882 0.426 1.11 1.055 2.057 1.849 2.837l0.001 0.001c0.8 0.813 1.77 1.443 2.832 1.843 1.019 0.395 2.182 0.67 3.882 0.744 1.707 0.075 2.251 0.094 6.595 0.094 4.346 0 4.89-0.019 6.595-0.094 1.701-0.074 2.869-0.349 3.882-0.742 2.157-0.85 3.833-2.526 4.664-4.628l0.019-0.055c0.394-1.019 0.669-2.182 0.744-3.882 0.075-1.707 0.093-2.251 0.093-6.595s-0.006-4.888-0.080-6.595zM29.035 22.474c-0.070 1.563-0.333 2.406-0.55 2.97-0.552 1.399-1.64 2.486-3.004 3.024l-0.036 0.012c-0.56 0.219-1.411 0.482-2.968 0.55-1.688 0.075-2.194 0.094-6.464 0.094-4.269 0-4.782-0.019-6.464-0.094-1.563-0.069-2.406-0.331-2.97-0.55-0.721-0.269-1.334-0.676-1.836-1.192l-0.001-0.001c-0.517-0.503-0.924-1.117-1.184-1.803l-0.011-0.034c-0.218-0.563-0.48-1.413-0.549-2.97-0.075-1.688-0.094-2.195-0.094-6.464 0-4.27 0.019-4.784 0.094-6.464 0.069-1.563 0.331-2.406 0.549-2.97 0.269-0.722 0.678-1.337 1.198-1.837l0.002-0.002c0.504-0.517 1.119-0.923 1.806-1.182l0.034-0.011c0.56-0.219 1.411-0.48 2.968-0.55 1.688-0.074 2.195-0.093 6.464-0.093 4.275 0 4.782 0.019 6.464 0.093 1.563 0.069 2.406 0.331 2.97 0.55 0.693 0.256 1.325 0.662 1.837 1.194 0.531 0.52 0.938 1.144 1.195 1.84 0.218 0.56 0.48 1.411 0.549 2.968 0.075 1.688 0.094 2.194 0.094 6.464 0 4.269-0.019 4.768-0.094 6.458z"></path>
<path d="M16.006 7.782c-4.539 0.002-8.218 3.681-8.219 8.221v0c0 0 0 0.001 0 0.002 0 4.541 3.681 8.222 8.222 8.222s8.222-3.681 8.222-8.222c0-4.541-3.681-8.222-8.222-8.222-0.001 0-0.001 0-0.002 0h0zM16.006 21.334c-2.945-0-5.332-2.388-5.332-5.333s2.388-5.333 5.333-5.333c0 0 0.001 0 0.001 0h-0c2.946 0 5.334 2.388 5.334 5.334s-2.388 5.334-5.334 5.334v0zM26.472 7.458c0 1.060-0.86 1.92-1.92 1.92s-1.92-0.86-1.92-1.92v0c0-1.060 0.86-1.92 1.92-1.92s1.92 0.86 1.92 1.92v0z"></path>
</symbol>
<symbol id="icon-linkedin" viewBox="0 0 32 32">
<path d="M31.992 32h0.008v-11.738c0-5.741-1.237-10.163-7.947-10.163-3.227 0-5.392 1.77-6.277 3.45h-0.093v-2.914h-6.365v21.363h6.627v-10.578c0-2.786 0.528-5.48 3.978-5.48 3.398 0 3.448 3.179 3.448 5.658v10.402h6.621zM0.528 10.635h6.635v21.365h-6.635v-21.365zM3.843 0c-2.123 0-3.843 1.721-3.843 3.843v0c0 2.12 1.722 3.878 3.843 3.878 2.12 0 3.842-1.757 3.842-3.878s-1.72-3.841-3.841-3.843h-0z"></path>
</symbol>
<symbol id="icon-smartphone" viewBox="0 0 20 32">
<path d="M17 0h-14c-1.654 0-3 1.346-3 3v26c0 1.654 1.346 3 3 3h14c1.654 0 3-1.346 3-3v-26c0-1.654-1.346-3-3-3zM3 2h14c0.552 0 1 0.448 1 1v0 21h-16v-21c0-0.552 0.448-1 1-1v0zM17 30h-14c-0.552 0-1-0.448-1-1v0-3h16v3c0 0.552-0.448 1-1 1v0z"></path>
<path d="M4.708 27.478c0.18 0.163 0.293 0.399 0.293 0.66s-0.113 0.497-0.292 0.659l-0.001 0.001c-0.186 0.17-0.435 0.275-0.708 0.275s-0.522-0.104-0.709-0.275l0.001 0.001c-0.18-0.163-0.293-0.399-0.293-0.66s0.113-0.497 0.292-0.659l0.001-0.001c0.186-0.17 0.435-0.275 0.708-0.275s0.522 0.104 0.709 0.275l-0.001-0.001z"></path>
</symbol>
<symbol id="icon-twitter" viewBox="0 0 32 32">
<path d="M32 6.098c-1.098 0.492-2.372 0.856-3.706 1.026l-0.068 0.007c1.357-0.815 2.377-2.074 2.868-3.573l0.013-0.046c-1.195 0.721-2.586 1.271-4.068 1.57l-0.084 0.014c-1.198-1.276-2.895-2.072-4.778-2.072-3.615 0-6.546 2.931-6.546 6.546 0 0.001 0 0.003 0 0.004v-0c0 0.519 0.043 1.019 0.152 1.493-5.444-0.265-10.26-2.875-13.496-6.848-0.563 0.947-0.897 2.088-0.901 3.306v0.001c0 2.268 1.169 4.278 2.908 5.441-1.089-0.030-2.103-0.325-2.989-0.822l0.033 0.017v0.072c0.003 3.159 2.232 5.796 5.203 6.428l0.043 0.008c-0.498 0.136-1.069 0.214-1.659 0.214-0.020 0-0.040-0-0.061-0l0.003 0c-0.418 0-0.842-0.024-1.239-0.112 0.848 2.593 3.255 4.5 6.118 4.561-2.211 1.742-5.036 2.795-8.107 2.795-0.004 0-0.008 0-0.013 0h0.001c-0.018 0-0.040 0-0.062 0-0.53 0-1.053-0.034-1.566-0.099l0.061 0.006c2.821 1.843 6.275 2.939 9.985 2.939 0.021 0 0.042-0 0.063-0h-0.003c12.049 0 18.637-9.981 18.637-18.633 0-0.287-0.010-0.569-0.024-0.846 1.296-0.934 2.386-2.060 3.252-3.348l0.030-0.047z"></path>
</symbol>
<symbol id="icon-yaco" viewBox="0 0 28 32">
<path d="M4.084 0.106l4.77 4.515-8.854-0.005v21.908h23.142v-8.377l4.765 4.511v-22.552h-23.822zM22.932 17.617l-13.524-12.803h13.524v12.803zM18.733 23.319h-15.071v-14.733h1.065v13.736h14.006v0.997zM7.222 29.441l-0.557 1.147-0.557-1.147h-0.467l0.813 1.529v0.891h0.422v-0.891l0.811-1.529h-0.465zM7.921 31.861l0.196-0.564h0.937l0.197 0.564h0.439l-0.915-2.42h-0.378l-0.913 2.42h0.437zM8.586 29.955l0.351 1.003h-0.701l0.351-1.004zM10.802 30.901c-0.057 0.085-0.091 0.19-0.091 0.303 0 0.001 0 0.003 0 0.004v-0c0 0.204 0.071 0.37 0.214 0.497s0.336 0.19 0.575 0.19c0.239 0 0.445-0.065 0.618-0.195l0.136 0.161h0.468l-0.355-0.421c0.14-0.191 0.209-0.435 0.209-0.733h-0.351c0 0.163-0.034 0.311-0.101 0.444l-0.468-0.551 0.165-0.12c0.1-0.068 0.184-0.152 0.249-0.249l0.002-0.003c0.048-0.078 0.076-0.173 0.076-0.275 0-0.001 0-0.003-0-0.004v0c0-0.003 0-0.006 0-0.009 0-0.149-0.065-0.283-0.169-0.374l-0.001-0c-0.108-0.097-0.251-0.157-0.408-0.157-0.008 0-0.017 0-0.025 0l0.001-0c-0.195 0-0.35 0.056-0.465 0.166s-0.173 0.259-0.173 0.449c0 0.078 0.018 0.157 0.054 0.241 0.038 0.083 0.104 0.184 0.197 0.302-0.179 0.129-0.299 0.24-0.36 0.334zM11.894 31.436c-0.104 0.084-0.237 0.135-0.382 0.136h-0c-0.006 0-0.013 0-0.020 0-0.104 0-0.199-0.040-0.27-0.106l0 0c-0.067-0.066-0.108-0.157-0.108-0.259 0-0.005 0-0.009 0-0.014l-0 0.001c0-0.129 0.067-0.245 0.199-0.346l0.052-0.037 0.528 0.623zM11.461 30.363c-0.114-0.141-0.171-0.257-0.171-0.351 0-0.081 0.024-0.148 0.070-0.201 0.044-0.049 0.107-0.081 0.178-0.081 0.004 0 0.007 0 0.010 0l-0.001-0c0.003-0 0.006-0 0.009-0 0.067 0 0.127 0.026 0.172 0.068l-0-0c0.048 0.045 0.071 0.099 0.071 0.161 0 0.003 0 0.006 0 0.009 0 0.090-0.040 0.171-0.103 0.226l-0 0-0.052 0.041-0.184 0.127zM15.399 31.678c0.166-0.145 0.261-0.347 0.286-0.604h-0.419c-0.022 0.173-0.075 0.296-0.158 0.37s-0.208 0.112-0.372 0.112c-0.18 0-0.318-0.069-0.412-0.206s-0.14-0.337-0.14-0.599v-0.214c0.003-0.259 0.052-0.453 0.15-0.587 0.099-0.134 0.24-0.201 0.422-0.201 0.157 0 0.276 0.039 0.357 0.116s0.133 0.202 0.153 0.376h0.419c-0.027-0.265-0.121-0.47-0.284-0.615s-0.378-0.218-0.645-0.218c-0.198 0-0.373 0.048-0.525 0.142-0.152 0.097-0.271 0.234-0.345 0.396l-0.002 0.006c-0.077 0.169-0.122 0.367-0.122 0.575 0 0.010 0 0.020 0 0.030l-0-0.001v0.226c0.003 0.223 0.045 0.418 0.125 0.587s0.193 0.298 0.339 0.39c0.148 0.091 0.318 0.136 0.51 0.136 0.276 0 0.497-0.071 0.663-0.216zM17.869 31.339c0.082-0.18 0.123-0.388 0.123-0.625v-0.134c0-0.007 0-0.016 0-0.024 0-0.216-0.047-0.421-0.131-0.605l0.004 0.009c-0.077-0.171-0.199-0.31-0.35-0.406l-0.004-0.002c-0.152-0.095-0.326-0.143-0.523-0.143s-0.372 0.048-0.525 0.144c-0.152 0.095-0.27 0.233-0.354 0.414-0.079 0.175-0.125 0.38-0.125 0.595 0 0.011 0 0.021 0 0.032l-0-0.002v0.136c0.001 0.231 0.043 0.436 0.126 0.613 0.084 0.178 0.203 0.314 0.356 0.411 0.154 0.095 0.329 0.143 0.525 0.143 0.199 0 0.374-0.048 0.525-0.143 0.152-0.097 0.27-0.234 0.352-0.412zM17.42 29.971c0.102 0.143 0.152 0.349 0.152 0.617v0.126c0 0.272-0.050 0.48-0.151 0.621-0.099 0.142-0.242 0.213-0.429 0.213-0.005 0-0.011 0-0.017 0-0.171 0-0.322-0.086-0.413-0.216l-0.001-0.002c-0.103-0.145-0.154-0.351-0.154-0.617v-0.14c0.002-0.26 0.054-0.461 0.156-0.603 0.091-0.13 0.24-0.215 0.409-0.215 0.006 0 0.012 0 0.018 0l-0.001-0c0.186 0 0.33 0.071 0.431 0.214z"></path>
</symbol>
<symbol id="icon-close-button" viewBox="0 0 32 32">
<path d="M32 3.223l-3.223-3.223-12.777 12.777-12.777-12.777-3.223 3.223 12.777 12.777-12.777 12.777 3.223 3.223 12.777-12.777 12.777 12.777 3.223-3.223-12.777-12.777 12.777-12.777z"></path>
</symbol>
<symbol id="icon-person-black" viewBox="0 0 32 32">
<path d="M16 16c4.418 0 8-3.582 8-8s-3.582-8-8-8v0c-4.418 0-8 3.582-8 8s3.582 8 8 8v0zM16 20c-5.341 0-16 2.68-16 8v2c0 1.099 0.899 2 2 2h28c1.099 0 2-0.901 2-2v-2c0-5.32-10.661-8-16-8z"></path>
</symbol>
<symbol id="icon-phone-black" viewBox="0 0 32 32">
<path d="M28.864 21.819l-4.524-0.517c-0.125-0.016-0.269-0.024-0.415-0.024-0.979 0-1.865 0.397-2.507 1.038l-3.279 3.279c-5.080-2.622-9.117-6.66-11.668-11.591l-0.070-0.15 3.298-3.291c0.642-0.641 1.039-1.528 1.039-2.507 0-0.146-0.009-0.29-0.026-0.432l0.002 0.017-0.517-4.49c-0.214-1.782-1.717-3.151-3.54-3.151-0.002 0-0.003 0-0.005 0h-3.081c-2.013 0-3.687 1.674-3.564 3.685 0.945 15.212 13.112 27.361 28.306 28.306 2.011 0.123 3.687-1.551 3.687-3.564v-3.082c0-0.005 0-0.011 0-0.017 0-1.811-1.363-3.303-3.119-3.506l-0.016-0.002z"></path>
</symbol>
<symbol id="icon-email-black" viewBox="0 0 32 32">
<path d="M28.8 3.2h-25.6c-1.76 0-3.183 1.44-3.183 3.2l-0.017 19.2c0 1.76 1.44 3.2 3.2 3.2h25.6c1.76 0 3.2-1.44 3.2-3.2v-19.2c0-1.76-1.44-3.2-3.2-3.2zM28.16 10.001l-11.311 7.070c-0.241 0.151-0.535 0.241-0.849 0.241s-0.608-0.090-0.856-0.244l0.007 0.004-11.311-7.070c-0.403-0.241-0.668-0.675-0.668-1.17 0-0.751 0.608-1.359 1.359-1.359 0.279 0 0.538 0.084 0.754 0.228l-0.005-0.003 10.72 6.703 10.72-6.705c0.211-0.141 0.47-0.225 0.749-0.225 0.751 0 1.359 0.608 1.359 1.359 0 0.496-0.265 0.93-0.662 1.167l-0.006 0.003z"></path>
</symbol>
<symbol id="icon-icon-send" viewBox="0 0 32 32">
<path fill="#fff" style="fill: var(--color1, #fff)" d="M32 0l-32 18 10.227 3.787 15.773-14.787-11.997 16.187 0.009 0.003-0.012-0.003v8.813l5.735-6.691 7.267 2.691 4.999-28z"></path>
</symbol>
<symbol id="icon-menu-burger" viewBox="0 0 32 32">
<path d="M0 8.889v-3.556h32v3.556h-32zM0 17.777h32v-3.555h-32v3.555zM0 26.667h32v-3.556h-32v3.556z"></path>
</symbol>
</defs>
</svg>

